<svg xmlns="http://www.w3.org/2000/svg" width="1200" height="630" viewBox="0 0 1200 630" role="img" aria-labelledby="title description">
  <title id="title">amortization.lol — Mortgage comparison</title>
  <desc id="description">Current loan and New home cards above a monthly payment chart, with dashed payment guides and solid interest curves.</desc>
  <defs>
    <linearGradient id="page" x1="0" y1="0" x2="0" y2="1">
      <stop offset="0" stop-color="#fff1e4"/>
      <stop offset=".5" stop-color="#fff6ef"/>
      <stop offset="1" stop-color="#f6f0ff"/>
    </linearGradient>
    <radialGradient id="glow" cx=".5" cy="0" r=".8">
      <stop offset="0" stop-color="#ffc88c" stop-opacity=".35"/>
      <stop offset="1" stop-color="#ffc88c" stop-opacity="0"/>
    </radialGradient>
    <pattern id="grid" width="48" height="48" patternUnits="userSpaceOnUse">
      <path d="M48 0H0V48" fill="none" stroke="#6c5ce7" stroke-opacity=".06"/>
    </pattern>
    <filter id="card-shadow" x="-10%" y="-10%" width="120%" height="130%">
      <feDropShadow dx="0" dy="12" stdDeviation="16" flood-color="#785028" flood-opacity=".09"/>
    </filter>
    <style>
      text { font-family: Nunito, 'Trebuchet MS', Arial, sans-serif; fill: #2b2d42; }
      .heading { font-family: Fredoka, 'Arial Rounded MT Bold', 'Trebuchet MS', sans-serif; font-weight: 600; }
      .label { fill: #62665f; font-size: 13px; font-weight: 600; }
      .muted { fill: #7a7d8c; }
    </style>
  </defs>

  <!-- The same peach/lavender graph background and rounded type as the app. -->
  <rect width="1200" height="630" fill="url(#page)"/>
  <rect width="1200" height="400" fill="url(#glow)"/>
  <rect width="1200" height="630" fill="url(#grid)"/>
  <path d="M-30 170C280 200 660 355 1230 580" fill="none" stroke="#6c5ce7" stroke-opacity=".12" stroke-width="4"/>
  <path d="M-30 300C330 320 700 470 1230 620" fill="none" stroke="#f08a3c" stroke-opacity=".18" stroke-width="4" stroke-linecap="round" stroke-dasharray="2 12"/>
  <text x="600" y="86" text-anchor="middle" class="heading" font-size="70" style="font-weight:700">amortization.lol</text>
  <text x="600" y="122" text-anchor="middle" class="muted" font-size="20" font-weight="600">Why you'll (probably) never leave your home</text>

  <rect x="40" y="156" width="1120" height="440" rx="34" fill="#fff" stroke="#e8e6df" filter="url(#card-shadow)"/>

  <!-- Current design: side-by-side loan cards above the chart. -->
  <rect x="64" y="180" width="524" height="128" rx="20" fill="#fcfbf8" stroke="#e8e6df"/>
  <circle cx="91" cy="208" r="4" fill="#f08a3c"/>
  <text x="104" y="217" class="heading" font-size="26">Current loan</text>
  <text x="86" y="244" class="label">Original amount</text>
  <text x="333" y="244" class="label">Interest rate</text>
  <text x="465" y="244" class="label">Term</text>
  <rect x="84" y="253" width="229" height="37" rx="10" fill="#f5f4f1"/>
  <rect x="328" y="253" width="116" height="37" rx="10" fill="#f5f4f1"/>
  <rect x="459" y="253" width="106" height="37" rx="10" fill="#f5f4f1"/>
  <text x="98" y="279" font-size="24" font-weight="600">$400,000</text>
  <text x="342" y="279" font-size="24" font-weight="600">2<tspan class="muted" font-size="14"> %</tspan></text>
  <text x="471" y="279" font-size="24" font-weight="600">30<tspan class="muted" font-size="13"> years</tspan></text>

  <rect x="612" y="180" width="524" height="128" rx="20" fill="#fcfbf8" stroke="#e8e6df"/>
  <circle cx="639" cy="208" r="4" fill="#6c5ce7"/>
  <text x="652" y="217" class="heading" font-size="26">New home</text>
  <text x="1114" y="215" text-anchor="end" class="muted" font-size="13">20% down · $480k loan</text>
  <text x="634" y="244" class="label">Purchase price</text>
  <text x="881" y="244" class="label">Interest rate</text>
  <text x="1013" y="244" class="label">Term</text>
  <rect x="632" y="253" width="229" height="37" rx="10" fill="#f5f4f1"/>
  <rect x="876" y="253" width="116" height="37" rx="10" fill="#f5f4f1"/>
  <rect x="1007" y="253" width="106" height="37" rx="10" fill="#f5f4f1"/>
  <text x="646" y="279" font-size="24" font-weight="600">$600,000</text>
  <text x="890" y="279" font-size="24" font-weight="600">7<tspan class="muted" font-size="14"> %</tspan></text>
  <text x="1019" y="279" font-size="24" font-weight="600">30<tspan class="muted" font-size="13"> years</tspan></text>

  <!-- Payment curves use the app's default example, as of October 2026. -->
  <rect x="64" y="332" width="1072" height="240" rx="20" fill="#fcfbf8" stroke="#e8e6df"/>
  <text x="89" y="368" class="label">Starting monthly difference</text>
  <text x="86" y="424" class="heading" font-size="52">$1,715<tspan fill="#6c5ce7"> more</tspan></text>
  <text x="89" y="453" class="muted" font-size="16">per month</text>
  <text x="89" y="493" font-size="18" font-weight="600">Compare payments, interest,</text>
  <text x="89" y="519" font-size="18" font-weight="600">and payoff dates side by side.</text>
  <text x="89" y="546" class="muted" font-size="12">Example · Principal + interest</text>

  <rect x="529" y="349" width="94" height="30" rx="15" fill="#2b2d42"/>
  <text x="576" y="369" text-anchor="middle" font-size="14" style="fill:#fff4ec">Payments</text>
  <path d="M642 364H658" stroke="#f08a3c" stroke-width="2"/>
  <text x="666" y="369" class="label">Current</text>
  <path d="M735 364H751" stroke="#6c5ce7" stroke-width="2"/>
  <text x="759" y="369" class="label">New home</text>
  <path d="M856 364H888" stroke="#62665f" stroke-width="2" stroke-dasharray="8 4"/>
  <text x="896" y="369" class="label">Monthly payment</text>

  <g stroke="#727968" stroke-opacity=".16">
    <path d="M565 395H1100M565 461.5H1100M565 528H1100"/>
  </g>
  <text x="552" y="400" text-anchor="end" class="muted" font-size="12">$4k</text>
  <text x="552" y="466" text-anchor="end" class="muted" font-size="12">$2k</text>
  <text x="552" y="532" text-anchor="end" class="muted" font-size="12">$0</text>
  <path d="M565.00,478.84 L569.46,478.84 L573.92,478.84 L578.38,478.84 L582.83,478.84 L587.29,478.84 L591.75,478.84 L596.21,478.84 L600.67,478.84 L605.12,478.84 L609.58,478.84 L614.04,478.84 L618.50,478.84 L622.96,478.84 L627.42,478.84 L631.88,478.84 L636.33,478.84 L640.79,478.84 L645.25,478.84 L649.71,478.84 L654.17,478.84 L658.62,478.84 L663.08,478.84 L667.54,478.84 L672.00,478.84 L676.46,478.84 L680.92,478.84 L685.38,478.84 L689.83,478.84 L694.29,478.84 L698.75,478.84 L703.21,478.84 L707.67,478.84 L712.12,478.84 L716.58,478.84 L721.04,478.84 L725.50,478.84 L729.96,478.84 L734.42,478.84 L738.88,478.84 L743.33,478.84 L747.79,478.84 L752.25,478.84 L756.71,478.84 L761.17,478.84 L765.62,478.84 L770.08,478.84 L774.54,478.84 L779.00,478.84 L783.46,478.84 L787.92,478.84 L792.38,478.84 L796.83,478.84 L801.29,478.84 L805.75,478.84 L810.21,478.84 L814.67,478.84 L819.12,478.84 L823.58,478.84 L828.04,478.84 L832.50,478.84 L836.96,478.84 L841.42,478.84 L845.88,478.84 L850.33,478.84 L854.79,478.84 L859.25,478.84 L863.71,478.84 L868.17,478.84 L872.62,478.84 L877.08,478.84 L881.54,478.84 L886.00,478.84 L890.46,478.84 L894.92,478.84 L899.38,478.84 L903.83,478.84 L908.29,478.84 L912.75,478.84 L917.21,478.84 L921.67,478.84 L926.12,478.84 L930.58,478.84 L935.04,478.84 L939.50,478.84 L943.96,478.84 L948.42,478.84 L952.88,478.84 L957.33,478.84 L961.79,478.84 L966.25,478.84 L970.71,478.84 L975.17,478.84 L979.62,478.84 L984.08,478.84 L988.54,478.84 L993.00,478.84 L997.46,478.84 L1001.92,478.84 L1006.38,478.84 L1007.86,478.88 L1009.35,528.00 L1010.83,528.00 L1015.29,528.00 L1019.75,528.00 L1024.21,528.00 L1028.67,528.00 L1033.12,528.00 L1037.58,528.00 L1042.04,528.00 L1046.50,528.00 L1050.96,528.00 L1055.42,528.00 L1059.88,528.00 L1064.33,528.00 L1068.79,528.00 L1073.25,528.00 L1077.71,528.00 L1082.17,528.00 L1086.62,528.00 L1091.08,528.00 L1095.54,528.00 L1098.51,528.00 L1100.00,528.00 L1100.00,528.00 L1098.51,421.73 L1095.54,421.82 L1091.08,421.82 L1086.62,421.82 L1082.17,421.82 L1077.71,421.82 L1073.25,421.82 L1068.79,421.82 L1064.33,421.82 L1059.88,421.82 L1055.42,421.82 L1050.96,421.82 L1046.50,421.82 L1042.04,421.82 L1037.58,421.82 L1033.12,421.82 L1028.67,421.82 L1024.21,421.82 L1019.75,421.82 L1015.29,421.82 L1010.83,421.82 L1009.35,421.82 L1007.86,421.82 L1006.38,421.82 L1001.92,421.82 L997.46,421.82 L993.00,421.82 L988.54,421.82 L984.08,421.82 L979.62,421.82 L975.17,421.82 L970.71,421.82 L966.25,421.82 L961.79,421.82 L957.33,421.82 L952.88,421.82 L948.42,421.82 L943.96,421.82 L939.50,421.82 L935.04,421.82 L930.58,421.82 L926.12,421.82 L921.67,421.82 L917.21,421.82 L912.75,421.82 L908.29,421.82 L903.83,421.82 L899.38,421.82 L894.92,421.82 L890.46,421.82 L886.00,421.82 L881.54,421.82 L877.08,421.82 L872.62,421.82 L868.17,421.82 L863.71,421.82 L859.25,421.82 L854.79,421.82 L850.33,421.82 L845.88,421.82 L841.42,421.82 L836.96,421.82 L832.50,421.82 L828.04,421.82 L823.58,421.82 L819.12,421.82 L814.67,421.82 L810.21,421.82 L805.75,421.82 L801.29,421.82 L796.83,421.82 L792.38,421.82 L787.92,421.82 L783.46,421.82 L779.00,421.82 L774.54,421.82 L770.08,421.82 L765.62,421.82 L761.17,421.82 L756.71,421.82 L752.25,421.82 L747.79,421.82 L743.33,421.82 L738.88,421.82 L734.42,421.82 L729.96,421.82 L725.50,421.82 L721.04,421.82 L716.58,421.82 L712.12,421.82 L707.67,421.82 L703.21,421.82 L698.75,421.82 L694.29,421.82 L689.83,421.82 L685.38,421.82 L680.92,421.82 L676.46,421.82 L672.00,421.82 L667.54,421.82 L663.08,421.82 L658.62,421.82 L654.17,421.82 L649.71,421.82 L645.25,421.82 L640.79,421.82 L636.33,421.82 L631.88,421.82 L627.42,421.82 L622.96,421.82 L618.50,421.82 L614.04,421.82 L609.58,421.82 L605.12,421.82 L600.67,421.82 L596.21,421.82 L591.75,421.82 L587.29,421.82 L582.83,421.82 L578.38,421.82 L573.92,421.82 L569.46,421.82 L565.00,421.82 Z" fill="#6c5ce7" fill-opacity=".14"/>
  <path d="M565.00,421.82 L569.46,421.82 L573.92,421.82 L578.38,421.82 L582.83,421.82 L587.29,421.82 L591.75,421.82 L596.21,421.82 L600.67,421.82 L605.12,421.82 L609.58,421.82 L614.04,421.82 L618.50,421.82 L622.96,421.82 L627.42,421.82 L631.88,421.82 L636.33,421.82 L640.79,421.82 L645.25,421.82 L649.71,421.82 L654.17,421.82 L658.62,421.82 L663.08,421.82 L667.54,421.82 L672.00,421.82 L676.46,421.82 L680.92,421.82 L685.38,421.82 L689.83,421.82 L694.29,421.82 L698.75,421.82 L703.21,421.82 L707.67,421.82 L712.12,421.82 L716.58,421.82 L721.04,421.82 L725.50,421.82 L729.96,421.82 L734.42,421.82 L738.88,421.82 L743.33,421.82 L747.79,421.82 L752.25,421.82 L756.71,421.82 L761.17,421.82 L765.62,421.82 L770.08,421.82 L774.54,421.82 L779.00,421.82 L783.46,421.82 L787.92,421.82 L792.38,421.82 L796.83,421.82 L801.29,421.82 L805.75,421.82 L810.21,421.82 L814.67,421.82 L819.12,421.82 L823.58,421.82 L828.04,421.82 L832.50,421.82 L836.96,421.82 L841.42,421.82 L845.88,421.82 L850.33,421.82 L854.79,421.82 L859.25,421.82 L863.71,421.82 L868.17,421.82 L872.62,421.82 L877.08,421.82 L881.54,421.82 L886.00,421.82 L890.46,421.82 L894.92,421.82 L899.38,421.82 L903.83,421.82 L908.29,421.82 L912.75,421.82 L917.21,421.82 L921.67,421.82 L926.12,421.82 L930.58,421.82 L935.04,421.82 L939.50,421.82 L943.96,421.82 L948.42,421.82 L952.88,421.82 L957.33,421.82 L961.79,421.82 L966.25,421.82 L970.71,421.82 L975.17,421.82 L979.62,421.82 L984.08,421.82 L988.54,421.82 L993.00,421.82 L997.46,421.82 L1001.92,421.82 L1006.38,421.82 L1007.86,421.82 L1009.35,421.82 L1010.83,421.82 L1015.29,421.82 L1019.75,421.82 L1024.21,421.82 L1028.67,421.82 L1033.12,421.82 L1037.58,421.82 L1042.04,421.82 L1046.50,421.82 L1050.96,421.82 L1055.42,421.82 L1059.88,421.82 L1064.33,421.82 L1068.79,421.82 L1073.25,421.82 L1077.71,421.82 L1082.17,421.82 L1086.62,421.82 L1091.08,421.82 L1095.54,421.82 L1098.51,421.73 L1100.00,528.00" fill="none" stroke="#6c5ce7" stroke-width="2.5" stroke-dasharray="8 4"/>
  <path d="M565.00,478.84 L569.46,478.84 L573.92,478.84 L578.38,478.84 L582.83,478.84 L587.29,478.84 L591.75,478.84 L596.21,478.84 L600.67,478.84 L605.12,478.84 L609.58,478.84 L614.04,478.84 L618.50,478.84 L622.96,478.84 L627.42,478.84 L631.88,478.84 L636.33,478.84 L640.79,478.84 L645.25,478.84 L649.71,478.84 L654.17,478.84 L658.62,478.84 L663.08,478.84 L667.54,478.84 L672.00,478.84 L676.46,478.84 L680.92,478.84 L685.38,478.84 L689.83,478.84 L694.29,478.84 L698.75,478.84 L703.21,478.84 L707.67,478.84 L712.12,478.84 L716.58,478.84 L721.04,478.84 L725.50,478.84 L729.96,478.84 L734.42,478.84 L738.88,478.84 L743.33,478.84 L747.79,478.84 L752.25,478.84 L756.71,478.84 L761.17,478.84 L765.62,478.84 L770.08,478.84 L774.54,478.84 L779.00,478.84 L783.46,478.84 L787.92,478.84 L792.38,478.84 L796.83,478.84 L801.29,478.84 L805.75,478.84 L810.21,478.84 L814.67,478.84 L819.12,478.84 L823.58,478.84 L828.04,478.84 L832.50,478.84 L836.96,478.84 L841.42,478.84 L845.88,478.84 L850.33,478.84 L854.79,478.84 L859.25,478.84 L863.71,478.84 L868.17,478.84 L872.62,478.84 L877.08,478.84 L881.54,478.84 L886.00,478.84 L890.46,478.84 L894.92,478.84 L899.38,478.84 L903.83,478.84 L908.29,478.84 L912.75,478.84 L917.21,478.84 L921.67,478.84 L926.12,478.84 L930.58,478.84 L935.04,478.84 L939.50,478.84 L943.96,478.84 L948.42,478.84 L952.88,478.84 L957.33,478.84 L961.79,478.84 L966.25,478.84 L970.71,478.84 L975.17,478.84 L979.62,478.84 L984.08,478.84 L988.54,478.84 L993.00,478.84 L997.46,478.84 L1001.92,478.84 L1006.38,478.84 L1007.86,478.88 L1009.35,528.00 L1010.83,528.00 L1015.29,528.00 L1019.75,528.00 L1024.21,528.00 L1028.67,528.00 L1033.12,528.00 L1037.58,528.00 L1042.04,528.00 L1046.50,528.00 L1050.96,528.00 L1055.42,528.00 L1059.88,528.00 L1064.33,528.00 L1068.79,528.00 L1073.25,528.00 L1077.71,528.00 L1082.17,528.00 L1086.62,528.00 L1091.08,528.00 L1095.54,528.00 L1098.51,528.00 L1100.00,528.00" fill="none" stroke="#f08a3c" stroke-width="2.5" stroke-dasharray="8 4"/>
  <path d="M565.00,434.90 L569.46,435.13 L573.92,435.36 L578.38,435.60 L582.83,435.85 L587.29,436.09 L591.75,436.34 L596.21,436.60 L600.67,436.86 L605.12,437.12 L609.58,437.39 L614.04,437.67 L618.50,437.95 L622.96,438.23 L627.42,438.52 L631.88,438.81 L636.33,439.11 L640.79,439.42 L645.25,439.73 L649.71,440.04 L654.17,440.36 L658.62,440.69 L663.08,441.02 L667.54,441.36 L672.00,441.70 L676.46,442.05 L680.92,442.41 L685.38,442.77 L689.83,443.14 L694.29,443.52 L698.75,443.90 L703.21,444.29 L707.67,444.68 L712.12,445.09 L716.58,445.50 L721.04,445.91 L725.50,446.34 L729.96,446.77 L734.42,447.21 L738.88,447.65 L743.33,448.11 L747.79,448.57 L752.25,449.04 L756.71,449.52 L761.17,450.01 L765.62,450.51 L770.08,451.01 L774.54,451.52 L779.00,452.05 L783.46,452.58 L787.92,453.12 L792.38,453.67 L796.83,454.23 L801.29,454.80 L805.75,455.38 L810.21,455.97 L814.67,456.58 L819.12,457.19 L823.58,457.81 L828.04,458.44 L832.50,459.09 L836.96,459.74 L841.42,460.41 L845.88,461.09 L850.33,461.78 L854.79,462.49 L859.25,463.20 L863.71,463.93 L868.17,464.67 L872.62,465.43 L877.08,466.19 L881.54,466.97 L886.00,467.77 L890.46,468.58 L894.92,469.40 L899.38,470.24 L903.83,471.09 L908.29,471.96 L912.75,472.84 L917.21,473.74 L921.67,474.65 L926.12,475.58 L930.58,476.53 L935.04,477.49 L939.50,478.47 L943.96,479.47 L948.42,480.49 L952.88,481.52 L957.33,482.57 L961.79,483.64 L966.25,484.73 L970.71,485.83 L975.17,486.96 L979.62,488.11 L984.08,489.27 L988.54,490.46 L993.00,491.67 L997.46,492.90 L1001.92,494.15 L1006.38,495.42 L1007.86,495.85 L1009.35,496.28 L1010.83,496.72 L1015.29,498.04 L1019.75,499.38 L1024.21,500.74 L1028.67,502.13 L1033.12,503.55 L1037.58,504.99 L1042.04,506.45 L1046.50,507.94 L1050.96,509.46 L1055.42,511.00 L1059.88,512.57 L1064.33,514.17 L1068.79,515.79 L1073.25,517.44 L1077.71,519.13 L1082.17,520.84 L1086.62,522.58 L1091.08,524.36 L1095.54,526.16 L1098.51,527.38 L1100.00,528.00" fill="none" stroke="#6c5ce7" stroke-width="2.5"/>
  <path d="M565.00,508.72 L569.46,508.87 L573.92,509.02 L578.38,509.17 L582.83,509.32 L587.29,509.48 L591.75,509.63 L596.21,509.78 L600.67,509.94 L605.12,510.09 L609.58,510.25 L614.04,510.41 L618.50,510.57 L622.96,510.72 L627.42,510.88 L631.88,511.04 L636.33,511.21 L640.79,511.37 L645.25,511.53 L649.71,511.69 L654.17,511.86 L658.62,512.02 L663.08,512.19 L667.54,512.36 L672.00,512.53 L676.46,512.69 L680.92,512.86 L685.38,513.03 L689.83,513.21 L694.29,513.38 L698.75,513.55 L703.21,513.72 L707.67,513.90 L712.12,514.07 L716.58,514.25 L721.04,514.43 L725.50,514.61 L729.96,514.79 L734.42,514.97 L738.88,515.15 L743.33,515.33 L747.79,515.51 L752.25,515.70 L756.71,515.88 L761.17,516.07 L765.62,516.25 L770.08,516.44 L774.54,516.63 L779.00,516.82 L783.46,517.01 L787.92,517.20 L792.38,517.39 L796.83,517.58 L801.29,517.78 L805.75,517.97 L810.21,518.17 L814.67,518.36 L819.12,518.56 L823.58,518.76 L828.04,518.96 L832.50,519.16 L836.96,519.36 L841.42,519.57 L845.88,519.77 L850.33,519.98 L854.79,520.18 L859.25,520.39 L863.71,520.60 L868.17,520.81 L872.62,521.02 L877.08,521.23 L881.54,521.44 L886.00,521.65 L890.46,521.87 L894.92,522.08 L899.38,522.30 L903.83,522.52 L908.29,522.74 L912.75,522.96 L917.21,523.18 L921.67,523.40 L926.12,523.62 L930.58,523.85 L935.04,524.07 L939.50,524.30 L943.96,524.53 L948.42,524.76 L952.88,524.99 L957.33,525.22 L961.79,525.45 L966.25,525.68 L970.71,525.92 L975.17,526.15 L979.62,526.39 L984.08,526.63 L988.54,526.87 L993.00,527.11 L997.46,527.35 L1001.92,527.59 L1006.38,527.84 L1007.86,527.92 L1009.35,528.00 L1010.83,528.00 L1015.29,528.00 L1019.75,528.00 L1024.21,528.00 L1028.67,528.00 L1033.12,528.00 L1037.58,528.00 L1042.04,528.00 L1046.50,528.00 L1050.96,528.00 L1055.42,528.00 L1059.88,528.00 L1064.33,528.00 L1068.79,528.00 L1073.25,528.00 L1077.71,528.00 L1082.17,528.00 L1086.62,528.00 L1091.08,528.00 L1095.54,528.00 L1098.51,528.00 L1100.00,528.00" fill="none" stroke="#f08a3c" stroke-width="2.5"/>
  <circle cx="565" cy="421.82" r="4" fill="#6c5ce7"/>
  <circle cx="565" cy="478.84" r="4" fill="#f08a3c"/>
  <text x="565" y="549" class="muted" font-size="12">2026</text>
  <text x="832" y="549" text-anchor="middle" class="muted" font-size="12">2041</text>
  <text x="1100" y="549" text-anchor="end" class="muted" font-size="12">2056</text>
</svg>
